<svg width="900" height="1200" viewBox="0 0 900 1200" fill="none" xmlns="http://www.w3.org/2000/svg">
  <rect width="900" height="1200" rx="54" fill="url(#bg)"/>
  <circle cx="450" cy="560" r="170" fill="#F3CAB0"/>
  <path d="M332 474C347 370 436 333 519 353C592 371 647 433 645 520C643 612 593 678 565 714H336C315 685 255 622 258 525C259 507 276 488 332 474Z" fill="#22191D"/>
  <ellipse cx="390" cy="545" rx="14" ry="16" fill="#231817"/>
  <ellipse cx="511" cy="545" rx="14" ry="16" fill="#231817"/>
  <path d="M419 601C434 612 452 612 467 601" stroke="#D87C6F" stroke-width="8" stroke-linecap="round"/>
  <path d="M396 653C423 671 462 671 489 653" stroke="#E59381" stroke-width="10" stroke-linecap="round"/>
  <path d="M240 398C289 363 339 350 381 350" stroke="#EF5F89" stroke-width="20" stroke-linecap="round" opacity="0.68"/>
  <path d="M187 531C215 443 283 398 347 384" stroke="#F7D7DF" stroke-width="36" stroke-linecap="round" opacity="0.95"/>
  <path d="M694 523C666 442 600 400 546 388" stroke="#F7D7DF" stroke-width="36" stroke-linecap="round" opacity="0.95"/>
  <path d="M294 750C340 706 560 705 609 750L631 908C635 966 588 1014 530 1014H370C312 1014 265 966 269 908L294 750Z" fill="#FDE6EC"/>
  <path d="M309 753C352 724 551 723 594 753" stroke="#EE5C86" stroke-width="18" stroke-linecap="round" opacity="0.55"/>
  <circle cx="585" cy="512" r="18" fill="#CFC7D7" opacity="0.82"/>
  <path d="M446 351C480 340 525 342 557 358" stroke="#2C2025" stroke-width="17" stroke-linecap="round" opacity="0.8"/>
  <defs>
    <linearGradient id="bg" x1="51" y1="75" x2="858" y2="1125" gradientUnits="userSpaceOnUse">
      <stop stop-color="#FBF7FC"/>
      <stop offset="1" stop-color="#F7D9E2"/>
    </linearGradient>
  </defs>
</svg>
